<?xml version="1.0" encoding="utf-8"?>
<!-- Generator: Adobe Illustrator 21.1.0, SVG Export Plug-In . SVG Version: 6.00 Build 0)  -->
<svg version="1.1" id="Guides" xmlns="http://www.w3.org/2000/svg" xmlns:xlink="http://www.w3.org/1999/xlink" x="0px" y="0px"
	 viewBox="0 0 895.3 483.6" style="enable-background:new 0 0 895.3 483.6;" xml:space="preserve">
<style type="text/css">
	.st0{fill:#4E6F7F;}
</style>
<path class="st0" d="M52.3,309.3c-33.8-60-54.3-83.5-52.1-127.8c0.5-10.7,1.9-33.3,16.8-53.6C38.2,99,71.8,95,101.9,86.9
	C205.3,59.1,212.2,0,269.8,0c66.7,0,77.8,79.5,151.5,125.4c162.8,101.4,397.2-106.7,459.9-34c40.3,46.8-10.2,186.7-97.5,259.8
	c-17,14.2-31.4,22.7-36.6,25.6c-106.5,59.3-194-9-320.3,11.3c-96.8,15.6-131.2,99.8-232.2,95.4c-21.8-1-33.5-4.9-40.4-7.8
	C103.5,454.6,107.3,406.9,52.3,309.3z"/>
</svg>
