<?xml version="1.0" encoding="utf-8"?>
<!-- Generator: Adobe Illustrator 21.1.0, SVG Export Plug-In . SVG Version: 6.00 Build 0)  -->
<svg version="1.1" id="Guides" xmlns="http://www.w3.org/2000/svg" xmlns:xlink="http://www.w3.org/1999/xlink" x="0px" y="0px"
	 viewBox="0 0 220 50" style="enable-background:new 0 0 220 50;" xml:space="preserve">
<style type="text/css">
	.st0{fill:#FFFFFF;}
</style>
<g>
	<path class="st0" d="M90.2,7.8h-5.3V4.7h14.2v3.1h-5.3v13.6h-3.7V7.8z"/>
	<path class="st0" d="M112.6,14.2h-7.7v7.1h-3.6V4.6h3.6v6.1h7.7v-6h3.6v16.7h-3.6V14.2z"/>
	<path class="st0" d="M122.2,18.3h9.4v3.1h-13V4.6h12.2v3.1h-8.6v3.8h7.6v3.2h-7.6V18.3z"/>
	<path class="st0" d="M89.8,33.4L88.2,45H85l2.4-16.8h4.2l6,10.4L99,28.2h3.1L99.8,45h-3.1L89.8,33.4z"/>
	<path class="st0" d="M111.6,45.2c-4.8,0-8.6-3.9-8.6-8.6c0-4.8,3.9-8.7,8.6-8.7c4.7,0,8.7,3.9,8.7,8.7
		C120.3,41.3,116.4,45.2,111.6,45.2z M106.5,36.5c0,2.8,2.3,5.1,5.1,5.1c2.8,0,5-2.3,5-5.1c0-2.8-2.3-5.1-5-5.1
		C108.9,31.4,106.5,33.8,106.5,36.5z"/>
	<path class="st0" d="M131.9,38.8l4.7,6.2h-4.5l-4.2-6h-1.8v6h-3.7V28.3h7.5c4.2,0,5.8,2.6,5.8,5.4c0,2.3-1.2,4.6-4,5.2H131.9z
		 M126.1,31.1v5h2.9c1.8,0,3.2-0.4,3.2-2.5c0-2.2-1.4-2.5-3.2-2.5H126.1z"/>
	<path class="st0" d="M142.8,31.3h-5.3v-3.1h14.2v3.1h-5.3V45h-3.7V31.3z"/>
	<path class="st0" d="M164.8,37.8H157v7.1h-3.6V28.2h3.6v6.1h7.7v-6h3.6v16.7h-3.6V37.8z"/>
	<path class="st0" d="M174.4,41.8h9.4v3.1h-13V28.2H183v3.1h-8.6V35h7.6v3.2h-7.6V41.8z"/>
	<path class="st0" d="M196,38.8l4.7,6.2h-4.5l-4.2-6h-1.8v6h-3.7V28.3h7.5c4.2,0,5.8,2.6,5.8,5.4c0,2.3-1.2,4.6-4,5.2H196z
		 M190.2,31.1v5h2.9c1.8,0,3.2-0.4,3.2-2.5c0-2.2-1.4-2.5-3.2-2.5H190.2z"/>
	<path class="st0" d="M206.6,33.4L205,45h-3.2l2.4-16.8h4.2l6,10.4l1.5-10.4h3.1L216.5,45h-3.1L206.6,33.4z"/>
</g>
<polygon class="st0" points="66.1,4.6 62.5,29.8 48,4.6 44.5,4.6 37.8,4.6 36.8,4.6 32.8,32.5 16.3,4.6 7.6,4.6 1.9,45.2 10.6,45.2 
	14.1,19.9 28.6,45.2 32.1,45.2 38.8,45.2 39.9,45.2 43.8,17.2 60.4,45.2 69,45.2 74.8,4.6 "/>
</svg>
